<svg width="1200" height="700" viewBox="0 0 1200 700" fill="none" xmlns="http://www.w3.org/2000/svg">
  <defs>
    <linearGradient id="bgGrad" x1="0" y1="0" x2="1" y2="1">
      <stop offset="0" stop-color="#0F3F64" />
      <stop offset="1" stop-color="#0A2D49" />
    </linearGradient>
    <radialGradient id="glowA" cx="0" cy="0" r="1" gradientTransform="translate(870 320) rotate(90) scale(260 320)" gradientUnits="userSpaceOnUse">
      <stop stop-color="#1C82FF" stop-opacity="0.55" />
      <stop offset="1" stop-color="#1C82FF" stop-opacity="0" />
    </radialGradient>
    <radialGradient id="glowB" cx="0" cy="0" r="1" gradientTransform="translate(560 130) rotate(90) scale(220 280)" gradientUnits="userSpaceOnUse">
      <stop stop-color="#1ED9D5" stop-opacity="0.32" />
      <stop offset="1" stop-color="#1ED9D5" stop-opacity="0" />
    </radialGradient>
    <linearGradient id="lineGrad" x1="0" y1="0" x2="1" y2="1">
      <stop offset="0" stop-color="#A8D9FF" stop-opacity="0.8" />
      <stop offset="1" stop-color="#A8D9FF" stop-opacity="0.25" />
    </linearGradient>
  </defs>

  <rect width="1200" height="700" fill="url(#bgGrad)" />
  <rect width="1200" height="700" fill="url(#glowA)" />
  <rect width="1200" height="700" fill="url(#glowB)" />

  <g opacity="0.65">
    <path d="M730 70L800 160L760 280L640 300L560 210L600 100L730 70Z" stroke="url(#lineGrad)" stroke-width="4" fill="none" />
    <path d="M980 470L1040 560L1000 670L880 690L810 600L850 500L980 470Z" stroke="url(#lineGrad)" stroke-width="4" fill="none" />
    <path d="M1140 120L1180 180L1150 250L1070 260L1020 200L1050 130L1140 120Z" stroke="url(#lineGrad)" stroke-width="3" fill="none" />
  </g>

  <g opacity="0.22">
    <circle cx="1020" cy="220" r="96" fill="#FFFFFF" />
    <circle cx="700" cy="520" r="66" fill="#5AC7FF" />
    <circle cx="880" cy="95" r="22" fill="#1ED9D5" />
  </g>
</svg>
